<?xml version="1.0" encoding="UTF-8"?>
<!-- Created with Inkscape (http://www.inkscape.org/) -->
<svg width="55" height="50" version="1.1" viewBox="0 0 55 50" xmlns="http://www.w3.org/2000/svg">
 <g fill="#019879" stroke="#179c7d" stroke-width=".082372">
  <path d="m13.939 44.561v-2.68h-12.356v-41.187l50.618 0.0422 0.02142 3.8097c0.01178 2.0953 0.05144 3.8097 0.08814 3.8097 0.16577 0 0.74171 0.59964 0.95849 0.99794 0.20433 0.37542 0.23888 0.52935 0.23775 1.0592-0.0014 0.66393-0.14127 1.0493-0.56244 1.5498-0.55708 0.66205-1.7767 0.88399-2.6425 0.48085-1.0193-0.47466-1.5167-1.6934-1.1411-2.7959 0.15336-0.45009 0.745-1.143 1.1023-1.291l0.24927-0.10325v-5.8284h-47.364v37.809h10.791v-5.1071h-6.8369v-2.8007c0-1.5404-0.03174-2.8006-0.07053-2.8006s-0.24028-0.12962-0.44775-0.28804c-0.2623-0.20028-0.4575-0.45111-0.64073-0.8233-0.23808-0.48361-0.25966-0.58901-0.22365-1.0924 0.062422-0.87242 0.46538-1.5296 1.1613-1.8939 0.36114-0.18907 0.52944-0.22375 1.0863-0.22389 0.75887-1.7e-4 1.1307 0.15177 1.6306 0.66645 0.42036 0.43278 0.58005 0.80561 0.61904 1.4453 0.05281 0.86642-0.3412 1.5796-1.1597 2.0991l-0.31041 0.19702 0.04422 3.8263 6.8781 0.043v6.7524l35.873 0.0416 0.02358 0.80313 0.02357 0.80313h-35.918l-0.04346 5.313-1.6886 0.047zm-5.2621-16.426c0.28144-0.28144 0.3198-0.36659 0.3198-0.70986s-0.03836-0.42842-0.3198-0.70985c-0.27028-0.27029-0.37354-0.3198-0.66686-0.3198-0.62651 0-1.0726 0.42825-1.0726 1.0296 0 0.60199 0.43499 1.0237 1.0599 1.0275 0.3095 2e-3 0.40446-0.0425 0.67957-0.3176zm43.234-16.881c0.11432-0.0846 0.26232-0.30794 0.32888-0.49638 0.10644-0.30136 0.10644-0.38446 0-0.69002-0.29411-0.84427-1.3503-0.96348-1.813-0.20462-0.58946 0.96674 0.57819 2.0612 1.4841 1.391z"/>
  <path d="m5.9943 22.752c0.03173-0.103 0.43679-1.151 0.90014-2.329 0.46335-1.1779 1.2542-3.1981 1.7574-4.4893 0.5032-1.2912 1.3583-3.4782 1.9003-4.86l0.98536-2.5124 3.1845-0.0446 0.75894 1.9168c0.41742 1.0542 1.1877 3.0103 1.7117 4.3468s1.3208 3.3567 1.7705 4.4893c0.83364 2.0995 1.401 3.5702 1.401 3.6314 0 0.0188-0.69752 0.0341-1.5501 0.0341h-1.5501l-0.46417-1.2575c-0.25529-0.69162-0.54179-1.433-0.63667-1.6474l-0.1725-0.38996-5.8819 4e-3 -1.2604 3.2501-2.9117 0.045zm9.1803-5.4556c0-0.066-0.30928-0.98345-0.68729-2.0387-0.37801-1.0553-0.83208-2.3327-1.0091-2.8386-0.17698-0.506-0.35855-0.92614-0.4035-0.93365-0.04495-7e-3 -0.25804 0.49917-0.47354 1.1259-0.2155 0.62677-0.67043 1.918-1.011 2.8694-0.34053 0.9514-0.61858 1.7762-0.61789 1.8328 9.65e-4 0.0797 0.47693 0.10296 2.1017 0.10296 1.7849 0 2.1005-0.018 2.1005-0.12005z"/>
  <path d="m23 15.727v-7.2272l2.7389 0.0429c2.9472 0.0462 3.6697 0.12259 4.9359 0.52181 1.8849 0.59431 3.0474 1.5472 3.8198 3.1312 0.52632 1.0794 0.63962 1.6825 0.64799 3.4496 0.0084 1.7847-0.10252 2.4566-0.576 3.4877-0.9401 2.0472-2.5109 3.1305-5.2238 3.6026-0.57931 0.10081-1.5045 0.14688-3.5626 0.17741l-2.7801 0.04127zm5.6382 4.8583c1.6607-0.43256 3.0737-1.8643 3.4609-3.507 0.16142-0.68477 0.16208-2.0422 0.0013-2.6719-0.22794-0.89282-0.58971-1.5089-1.3089-2.2289-1.0732-1.0745-2.0746-1.4334-3.9989-1.4334h-0.99194v9.967h1.1771c0.79028 0 1.3359-0.0414 1.6604-0.1259z"/>
  <path d="m37.086 22.894c0-0.0227 0.1825-0.49534 0.40556-1.0502 0.22306-0.55491 0.5593-1.4167 0.74721-1.915s0.72677-1.8884 1.1975-3.089c1.4916-3.8043 2.8108-7.1893 3.0177-7.743l0.20009-0.53542 3.2328-0.0446 0.50446 1.2991c0.5653 1.4557 1.9869 5.074 3.2614 8.3007 0.9793 2.4794 1.8484 4.7276 1.8484 4.7815 0 0.0205-0.69848 0.0373-1.5522 0.0373h-1.5522l-1.213-3.2949h-5.9399l-0.48499 1.2974c-0.26675 0.71355-0.55227 1.4549-0.6345 1.6474l-0.1495 0.35008h-1.4444c-0.79444 0-1.4444-0.0186-1.4444-0.0413zm9.2257-5.5806c0-0.0951-0.79418-2.3952-1.6656-4.824-0.20016-0.55789-0.39843-1.0124-0.44059-1.01-0.06461 4e-3 -2.0928 5.6936-2.0943 5.8752-2.69e-4 0.034 0.94473 0.0618 2.1 0.0618 1.6258 0 2.1005-0.0233 2.1005-0.10299z"/>
  <path d="m14.021 28.015c0-1.4649 0.01661-2.68 0.03691-2.7003s0.18654-0.0226 0.36943-5e-3l0.33252 0.0317 0.02184 2.3597 0.02184 2.3597 2.2652 0.0458v0.57196h-3.0478z"/>
  <path d="m19.368 30.638c-0.49281-0.15796-1.0966-0.69571-1.3762-1.2257-0.2061-0.39071-0.22262-0.49538-0.22262-1.4105 0-0.87846 0.0216-1.0297 0.19407-1.3592 0.56818-1.0852 1.5924-1.5904 2.8227-1.3923 0.58183 0.0937 0.85696 0.22 1.2708 0.58331 0.63855 0.56066 0.97634 1.7364 0.78976 2.7491-0.26096 1.4162-1.0247 2.1007-2.4002 2.151-0.4561 0.0167-0.83199-0.0167-1.0783-0.0956zm1.7394-0.64238c1.0156-0.53707 1.3637-2.1835 0.70076-3.3147-0.59262-1.0112-2.0072-1.1558-2.7934-0.2855-0.70674 0.78228-0.72075 2.3961-0.02765 3.1855 0.53016 0.60383 1.4299 0.77979 2.1203 0.41468z"/>
  <path d="m25.013 29.381c-0.26145-0.71355-0.71016-1.903-0.99712-2.6432-0.28697-0.74024-0.52176-1.3611-0.52176-1.3797 0-0.0186 0.17607-0.0335 0.39127-0.0332l0.39127 6.9e-4 0.36285 1.0084c0.19956 0.5546 0.57352 1.6014 0.83102 2.3263 0.2575 0.72487 0.50196 1.312 0.54325 1.3048 0.04129-7e-3 0.44141-1.0451 0.88915-2.3064 0.44774-1.2613 0.82383-2.3048 0.83576-2.319 0.02307-0.0274 0.40353-0.0431 0.62445-0.0258 0.13595 0.0107-0.21169 1.0078-1.4611 4.1908l-0.46075 1.1738h-0.95291z"/>
  <path d="m29.343 28.002v-2.6771h3.0478v0.5766h-2.3064v1.6474h2.0593v0.65898h-2.0647l0.04658 1.8534 2.2652 0.0458v0.57196h-3.0478z"/>
  <path d="m33.708 28.002v-2.6771h0.74135v4.7776h2.3064v0.57661h-3.0478z"/>
  <path d="m37.086 30.648c0-0.017 0.12491-0.30501 0.27759-0.64003 0.15267-0.33502 0.60048-1.3849 0.99514-2.3331 1.0293-2.4728 0.95426-2.3502 1.4374-2.3502h0.40034l1.0189 2.4402c0.5604 1.3421 1.0654 2.5468 1.1221 2.6771l0.1032 0.23685-0.78301-5.6e-4 -0.50058-1.2762-2.8039-0.045-0.5457 1.3217h-0.36073c-0.1984 0-0.36073-0.0139-0.36073-0.0309zm3.7021-2.0078c-0.0074-0.23019-0.93332-2.5165-1.0324-2.5493-0.07359-0.0244-1.1046 2.4341-1.1046 2.634 0 0.0327 0.48188 0.0595 1.0708 0.0595 0.96671 0 1.0704-0.014 1.0662-0.14415z"/>
  <path d="m44.855 30.613c-0.56952-0.20283-0.96527-0.48234-1.2479-0.88138-0.51757-0.73067-0.6862-1.6003-0.47225-2.4354 0.34465-1.3453 1.2852-2.0625 2.7234-2.0766 0.36244-4e-3 0.79533 0.0392 0.96198 0.0949 0.29046 0.0972 0.30106 0.11403 0.25605 0.40589-0.02582 0.16745-0.05241 0.31208-0.0591 0.3214-0.0067 9e-3 -0.17751-0.0407-0.37961-0.1112-0.7314-0.25507-1.7209-0.0254-2.2366 0.51916-0.55156 0.58242-0.73798 1.7306-0.40136 2.472 0.45074 0.99273 1.5729 1.4774 2.662 1.1496l0.37652-0.11332 0.05418 0.28879c0.03233 0.17235 0.01779 0.32517-0.03606 0.37903-0.05 0.05-0.46578 0.10112-0.93243 0.11465-0.65624 0.019-0.93639-9e-3 -1.2688-0.1275z"/>
  <path d="m48.206 28.002v-2.6771h2.9654v0.5766h-2.3064v1.6425l2.1005 0.0462 0.02557 0.30889 0.02557 0.3089h-2.157l0.04658 1.8534 2.2652 0.0458v0.57196h-2.9654z"/>
  <path d="m26.171 38.343c-0.96831-0.14836-1.7483-0.7199-2.1158-1.5504-0.26285-0.594-0.2956-1.58-0.07216-2.1724 0.42398-1.1239 1.2582-1.7177 2.5047-1.7826 0.36944-0.0192 0.82924 8e-3 1.0218 0.0595 0.33704 0.091 0.35008 0.1067 0.35008 0.42086 0 0.17947-0.01554 0.32631-0.03453 0.32631s-0.26256-0.0584-0.54125-0.12981c-1.1518-0.29507-2.233 0.27376-2.5956 1.3656-0.1771 0.53319-0.13281 1.227 0.10852 1.7 0.19907 0.39021 0.74634 0.90546 1.1336 1.0673 0.34635 0.14472 1.2124 0.1437 1.6204-2e-3l0.3089-0.11024v0.35443c0 0.32121-0.02123 0.35849-0.22652 0.39779-0.48934 0.0937-1.0692 0.11571-1.4621 0.0555z"/>
  <path d="m28.931 35.58v-2.6771h3.0478v0.57661h-2.3122l0.02347 0.84431 0.02347 0.84432 2.0181 0.0462v0.57153h-2.0593v1.8899l2.2652 0.0458 0.05162 0.53542h-3.0582z"/>
  <path d="m33.297 35.58v-2.6771h0.9812l0.32055 0.55601c0.1763 0.30581 0.6402 1.1491 1.0309 1.874 0.39069 0.72488 0.80293 1.4662 0.9161 1.6474l0.20576 0.32949 0.0052-4.4069h0.74135v5.3542h-0.96782l-1.011-1.8328c-1.4094-2.5552-1.3964-2.533-1.4843-2.533-0.0483 0-0.0789 0.84658-0.0789 2.1829v2.1829h-0.65904z"/>
  <path d="m40.032 35.889-0.02186-2.3682-1.6886-0.047v-0.57084h4.201v0.57661h-1.7298v4.7776h-0.73882z"/>
  <path d="m43.364 35.6 0.02346-2.6565 3.0066-0.045v0.57568l-2.2652 0.0458v1.6474l2.0517 0.0824 0.0076 0.49424-1.0502 0.023-1.0502 0.0231v1.8896h2.3064v0.5766h-3.0535z"/>
  <path d="m47.712 35.837c0-1.3308-0.024-2.5397-0.05334-2.6864l-0.05334-0.26669 1.2271 0.0336c1.0481 0.0287 1.2752 0.059 1.5566 0.20736 0.42791 0.22564 0.62794 0.5766 0.64076 1.1242 0.0153 0.65329-0.25423 1.0222-0.96685 1.3232-0.04717 0.0199-0.0037 0.10384 0.09662 0.18647 0.14326 0.11801 1.2591 2.2976 1.2591 2.4594 0 0.0212-0.18042 0.0385-0.40094 0.0385h-0.40094l-0.44025-1.0374c-0.52178-1.2295-0.64101-1.3514-1.3225-1.3514h-0.48313v2.3888h-0.65898zm2.0965-0.74467c0.33232-0.13885 0.45703-0.3433 0.45703-0.74924 0-0.47861-0.33228-0.75116-1.0033-0.82303-0.87981-0.0942-0.84645-0.12651-0.8735 0.84551l-0.02348 0.84335h0.58213c0.32017 0 0.7077-0.0525 0.86116-0.11659z"/>
 </g>
</svg>
