<?xml version="1.0" encoding="UTF-8"?>
<!-- Created with Inkscape (http://www.inkscape.org/) -->
<svg width="162.52" height="44.453" version="1.1" viewBox="0 0 162.52 44.453" xmlns="http://www.w3.org/2000/svg">
 <defs>
  <clipPath id="clipPath5246">
   <path d="m264.18 132.59h954.68v146.86h-954.68z"/>
  </clipPath>
 </defs>
 <g transform="matrix(1.3333 0 0 -1.3333 0 44.453)">
  <g transform="scale(.1)">
   <g fill="#00a48c">
    <path d="m0 134.87c47.016 24.199 115.89 63.32 197.63 120.54v19.203c-71.945-47.07-145.11-84.867-197.63-109.87v-29.871"/>
    <path d="m0 192.21c52.344 21.324 125.51 54.277 197.63 97.168v9.48c-67.785-33.632-138.2-54.671-197.63-67.796v-38.852"/>
    <path d="m197.63 134.77v96.582c-44.996-37.933-89.551-70.769-126.98-96.582h126.98"/>
    <path d="m45.375 134.77c35.543 21.094 78.688 48.629 121.65 80.817 10.028 7.512 20.262 15.25 30.606 23.246v11.969c-63.594-47.672-128.5-87.418-179.21-116.03h26.953"/>
    <path d="m0 245.11c57.809 10.164 128.52 28.45 197.63 61.297v10.766c-69.641-31.258-139.34-44.52-197.63-49.238v-22.825"/>
    <path d="m0 333.4v-55.332c4.3164 0.266 8.7188 0.578 13.215 0.922 48.059 3.699 113.64 12.188 184.42 42.789v11.621h-197.63"/>
   </g>
   <g fill="#fff">
    <path d="m0 278.07v-10.132c58.289 4.718 127.99 17.98 197.63 49.238v4.605c-70.778-30.601-136.36-39.09-184.42-42.789-4.496-0.344-8.8984-0.656-13.215-0.922"/>
    <path d="m0 231.06c59.43 13.125 129.85 34.164 197.63 67.796v7.555c-69.11-32.847-139.82-51.133-197.63-61.297v-14.054"/>
    <path d="m0 164.74c52.523 25 125.69 62.797 197.63 109.87v14.766c-72.121-42.891-145.29-75.844-197.63-97.168v-27.465"/>
    <path d="m45.375 134.77h25.273c37.434 25.813 81.989 58.649 126.98 96.582v7.481c-10.344-7.996-20.578-15.734-30.606-23.246-42.964-32.188-86.109-59.723-121.65-80.817"/>
    <path d="m0 134.77h18.422c50.711 28.614 115.62 68.36 179.21 116.03v4.601c-81.742-57.215-150.62-96.336-197.63-120.54v-0.098"/>
   </g>
   <g clip-path="url(#clipPath5246)">
    <path d="m264.18 134.87h26.562v58.063h44.777v20.871h-44.777v32.625h47.051v20.871h-73.613zm91.828 0h25.418v35.867c0 14.024 0 39.836 20.679 39.836 4.551 0 9.106-0.746 11.387-2.082v25.606c-2.66 0.765-5.312 0.765-7.781 0.765-15.172 0-25.613-15.383-26.746-24.468h-0.379v22.183h-22.578zm76.453 70.77c8.535 6.453 19.351 10.629 30.168 10.629 14.98 0 22.008-5.313 22.008-21.071h-14.039c-10.625 0-23.145-0.933-32.825-5.683-9.675-4.754-16.687-13.286-16.687-27.907 0-18.574 16.879-29.019 34.144-29.019 11.567 0 24.286 6.07 30.161 16.883h0.386c0.196-3.02 0.196-9.465 1.133-14.602h22.387c-0.571 7.598-0.946 14.426-1.141 21.817-0.191 7.214-0.379 14.617-0.379 24.484v12.523c0 28.84-12.332 41.168-42.113 41.168-10.813 0-24.09-2.855-33.965-7.406zm12.89-42.5c0 14.992 16.891 16.894 28.278 16.894h11.008c0-7.597-1.141-14.609-5.321-20.125-3.984-5.293-10.047-8.738-17.828-8.738-9.105 0-16.137 3.633-16.137 11.969m173.43 69.437h-25.441v-47.816c0-12.504-3.981-32.438-22.387-32.438-16.312 0-16.504 16.137-16.504 28.09v52.164h-25.422v-61.66c0-22.012 10.063-38.328 33.203-38.328 13.278 0 24.286 6.07 32.063 15.562h0.387v-13.281h24.101zm26.192-97.707h25.41v47.82c0 12.508 3.984 32.442 22.383 32.442 16.308 0 16.503-16.133 16.503-28.082v-52.18h25.438v61.668c0 22.008-10.066 38.324-33.211 38.324-13.281 0-24.102-4.371-32.051-15.562h-0.41v13.277h-24.062zm115.9 0h25.43v47.82c0 12.508 3.984 32.442 22.402 32.442 16.309 0 16.484-16.133 16.484-28.082v-52.18h25.411v61.668c0 22.008-10.059 38.324-33.184 38.324-13.281 0-24.289-6.078-30.715-15.562h-0.398v57.863h-25.43zm105.86 48.184c0-28.055 18.797-50.465 51.055-50.465 32.43 0 51.211 22.41 51.211 50.465 0 32.261-22.18 51.808-51.211 51.808-28.848 0-51.055-19.547-51.055-51.808m26.563 3.054c0 14.606 7.969 29.024 24.492 29.024 16.699 0 24.649-14.039 24.649-29.024 0-16.324-5.098-33.785-24.649-33.785-19.375 0-24.492 17.656-24.492 33.785m101.13-51.238h25.41v79.121h22.19v18.586h-22.19v12.149c0 7.582 2.66 14.988 11.21 14.988 5.49 0 8.73-2.094 10.98-3.422l2.11 21.066c-4.94 1.133-12.15 2.082-18.6 2.082-20.12 0-31.11-13.656-31.11-33.195v-13.668h-18.789v-18.586h18.789zm81.19 58.438c1.15 13.093 8.34 22.961 22.58 22.961s19.94-10.629 20.68-22.961zm60.33-32.262c-9.49-5.305-20.1-9.875-32.45-9.875-15.71 0-26.73 8.922-27.88 24.687h67.53c0 34.149-10.23 59.004-46.48 59.004-30.34 0-45.33-23.336-45.33-51.605 0-32.086 18.77-50.668 51.04-50.668 13.67 0 24.26 2.652 33.57 7.793zm25.43-26.176h25.41v35.867c0 14.024 0 39.836 20.67 39.836 4.57 0 9.13-0.746 11.4-2.082v25.606c-2.67 0.765-5.32 0.765-7.79 0.765-15.17 0-25.61-15.383-26.74-24.468h-0.39v22.183h-22.56v-97.707" fill="#231f20"/>
   </g>
   <g fill="#231f20">
    <path d="m1121 67.391h12.84v-66.25h-12.84v66.25"/>
    <path d="m1151.1 67.391h12.84v-66.25h-12.84v66.25"/>
    <path d="m1200.9 58.094c-1.11 0-2.2-0.1329-3.31-0.379-1.16-0.2539-2.26-0.7343-3.3-1.414-0.98-0.6485-1.8-1.586-2.48-2.8555-0.67-1.2109-1-2.7226-1-4.5586 0-1.3984 0.43-2.5586 1.27-3.5039 0.86-0.957 1.94-1.8203 3.22-2.5703 1.4-0.7617 2.94-1.457 4.59-2.0898 1.59-0.6954 3.27-1.418 5.04-2.1758 1.77-0.7071 3.48-1.5274 5.13-2.4727 1.72-1.0156 3.22-2.2461 4.51-3.7031 1.27-1.3867 2.35-3.0664 3.2-5.0273 0.73-2.0313 1.1-4.461 1.1-7.3165-0.12-7.1445-2.48-12.273-7.07-15.371-4.58-3.1055-10.23-4.6562-16.95-4.6562-3.31 0-6.1 0.25391-8.36 0.76172-2.33 0.4375-5.02 1.043-8.07 1.8047l1.19 11.953c4.53-2.6562 9.36-4.0234 14.5-4.082 2.62 0 5.16 0.7031 7.61 2.0898 2.44 1.3907 3.69 3.5469 3.75 6.4571 0 1.582-0.35 2.9492-1.09 4.082-0.86 1.1445-1.93 2.0899-3.21 2.8399-2.82 1.5234-6.03 2.9804-9.63 4.375-1.78 0.7656-3.46 1.6445-5.05 2.6562-1.64 0.957-3.18 2.0898-4.59 3.418-1.27 1.3867-2.34 3.0703-3.2 5.0312-0.86 1.961-1.29 4.2774-1.29 6.9219 0.13 7.3437 2.48 12.598 7.07 15.762 4.4 2.9805 9.51 4.4766 15.31 4.4766 5.51 0 10.61-0.8047 15.31-2.3867l-1.18-10.918c-4.1 1.8359-8.45 2.7851-13.02 2.8516"/>
   </g>
  </g>
 </g>
</svg>
